<svg version="1.0" xmlns="http://www.w3.org/2000/svg" width="682.667" height="682.667" viewBox="0 0 512 512"><path d="M0 123.7v123.8l3.4-6.1c4.9-9.2 9.4-14.9 20.3-25.5 12.1-11.9 20.4-18.5 37.2-29.4 7.2-4.6 18.1-13 24.3-18.6 6.2-5.5 20.5-17.3 31.8-26.2 23.2-18.3 31.7-26.2 34.8-32.8 5.3-11.1.4-23.1-12-29.5-9-4.6-16.7-5.8-36.3-5.8-19.7 0-28.2.9-54.5 5.6-19.8 3.5-23.2 3.3-28.5-1.3-9.1-8-3.4-20.7 17.2-37.9C55.8 24.9 75.6 13 97 4.3L107.5.1 53.8 0H0v123.7zM220.8 2c14.1 5.1 46.5 23 62 34.4 8.5 6.3 34.4 32.1 44.7 44.6 12.2 14.7 24.7 31.8 38 52 6.8 10.2 13.6 19.7 15.1 21.2 4 3.7 8.3 5.3 22.1 8.3 23.6 5.1 55.7 15.6 71.3 23.3 8.7 4.2 21 13.3 26.4 19.3 2.1 2.2 5.5 6.8 7.7 10.1l3.9 6.1V0L363.8.1C217.6.1 215.6.2 220.8 2z"/><path d="M146.6 5C110.9 9.1 74.5 25.7 43.2 52c-6.4 5.4-17.3 18-15.5 18 .4 0 7.6-1.3 15.8-2.9 29.2-5.8 36.5-6.6 60-6.5 19.5 0 22.9.3 29.9 2.2 16.4 4.5 26.1 11.3 31.3 22 3.9 8 4.5 20.7 1.2 27.7-3.5 7.6-19.6 23-42.4 40.5-11 8.5-24.5 19.8-30 25.2-6.4 6.3-13.1 11.7-18.5 14.9-19.7 11.9-40.9 28.4-49.7 38.7-22.1 26.1-23 53.6-2.4 74.2 7.4 7.3 15 11.7 26.1 15.1 6.1 1.9 9.9 2.3 20.2 2.4 8.1 0 12.7.4 12.5 1-.9 2.6-9.5 7.6-18.2 10.5-11.2 3.7-17.8 7.9-22 13.8-2.7 3.9-3 5.3-3.6 14.5-.3 5.6-.8 10.9-1.2 11.7-.4.8-6.4 6.9-13.3 13.4s-15 14.9-18 18.6L0 413.7V512h445.9l9.8-6.2c5.4-3.4 13.6-8.5 18.3-11.4 4.7-2.9 15.1-9.6 23.3-14.9l14.7-9.6v-10.1l-11.7 6.3c-6.5 3.4-25 13.8-41.2 23.1-16.2 9.2-29.8 16.8-30.2 16.8-.4 0-1-3.6-1.4-8.1-.4-4.4-1.3-10.3-2-13-1.3-4.8-1.3-4.9.8-4.9 1.9-.1 9.4-2.7 32.2-11.4 5.4-2 20.4-9.6 45.2-22.7l8.3-4.4v-10.8c0-5.9-.2-10.7-.4-10.7s-5.3 3.1-11.3 6.8c-14.5 9.2-31 18.2-44.2 24.2-16.2 7.3-14.4 7.4-23.7-2.2-20.8-21.7-28.9-44-30.1-82.8l-.6-18.5 16.2-9.2c28-16 52.3-33.1 61.6-43.5 17.6-19.5 26.5-40.6 23.8-56.4-3-17.3-13.8-30.1-34.3-40.3-18.8-9.5-54-20.3-82.9-25.6-7.4-1.4-13.5-2.6-13.6-2.8-.1-.1-2.3-4-5-8.7-7-12.4-23.9-37.7-35.8-53.6-25.2-33.6-50.3-58.6-69.4-68.9-3.2-1.8-10.1-5.8-15.3-9-18.2-11.2-40.4-19.8-59-22.9-11.9-2.1-31-2.8-41.4-1.6zm-8.7 43.5c29.3 5.1 48.4 15.8 52.6 29.3.6 2-.2 1.7-5.7-2.3-19.4-14.4-41.7-20.6-89.8-25.1-6.8-.6-7.2-.8-4.2-1.6 11.2-3 31.1-3.1 47.1-.3zm51.1 67.7c-1.5 8-4 13.3-8.7 19.3-4.2 5.2-12.6 10.9-17.8 12l-3 .7 3.5-2.8c12.6-10.3 18.1-17.6 23.3-31.3 3.5-9.5 4.8-8.5 2.7 2.1zm-28.5 42.6c-11.3 11-13.4 12.2-22.7 13.8-4.6.8-9.6 1.9-11.3 2.4l-3 .9 2.4-1.7c3.5-2.5 39.4-22.1 40.6-22.2.5 0-2.2 3.1-6 6.8zm-8 16.9c-2.2 1.4-7.8 5.7-12.3 9.4-5.6 4.6-9.6 7.1-12 7.5-3.3.6-22.3 6.1-27.7 8-6.9 2.4 27.6-17.8 39-22.8 10.2-4.6 10.4-4.6 14-4.7l3-.1-4 2.7zm203.3 51.5c-6 7.4-6.2 8.1-3.3 13.5 3.7 7 3.2 11.4-2.6 25-3.3 7.8-3.3 3.9.1-4.8 3.7-9.7 4-15.5 1.1-20.3-1.2-1.8-2.1-4.2-2.1-5.4 0-2 8.9-13.6 9.8-12.7.3.2-1.1 2.4-3 4.7zm-81.1 4.2c8.9 0 16.4.4 16.7.7 1.6 1.6-9.8 25-18.3 37.4-3.4 5-6.4 10.6-6.7 12.5-.6 3.4-1 3.7-9.2 7-4.8 1.9-8.9 3.6-9.2 3.8-.4.1-1.7-1.7-3-4-1.3-2.4-4.8-6.6-7.7-9.5-4-3.9-5.4-6.1-5.9-9.1l-.6-3.9 5.2-.7c5.1-.7 15-4.4 15-5.6 0-.3-2.7-1.2-6.1-1.9-4.3-.8-7.1-2.1-9.5-4.4l-3.5-3.2 7.1-11.6 7.2-11.6 6.1 2c5.1 1.6 9.2 2 22.4 2.1zM331 233c3.5 1.2 3.6 1.4 5.4 9.5 1 4.6 1.5 9.2 1.1 10.5-.4 1.3-2.5 4.2-4.7 6.6l-4 4.4 2.6 1c2.1.8 2.5 1.4 2.1 3.7-.2 1.5-.6 5.3-.9 8.4-.3 3.1-1.2 7.1-2 9-5.1 12.1-5.5 12.9-7.1 12.3-.8-.3-1.5-1.2-1.5-1.9s-1.3-2.4-3-3.8c-2.6-2.2-2.7-2.5-1-3 1-.3 2.8-2 3.9-3.8 2.9-4.7 2.7-14.5-.3-30.6-1.4-7.1-2.8-15.1-3.1-18l-.7-5.2 3.9-.4c4.1-.4 4.1-.4 9.3 1.3zm-20.6 4.7c.4 3.2 1.8 12.1 3.2 19.8 2.8 15 3.3 22 1.7 23.6-1.2 1.2-7.3 0-7.3-1.4 0-.5-1.2-3.5-2.7-6.6-2.7-5.4-2.8-6-2.7-22.2.1-9.2.5-17.2.8-17.8.4-.6 2-1.1 3.5-1.1 2.7 0 2.9.3 3.5 5.7zm50.6 8.5c1.6 6.3.7 21.7-1.5 25.6l-1.4 2.7.5-3c2.1-12.5 2.1-21.7-.2-29.4-.5-1.6-.4-2.2.3-1.8.6.4 1.7 3 2.3 5.9zm-172 14.1c0 .8 2.7 5.2 5.9 9.8 7.4 10.6 8.8 15 7.2 22.2-1.5 6.9-5.1 12.9-15.4 26.1-10.5 13.4-14 20-14.5 27.6-.5 7 .8 11.3 5.5 18.1 4.4 6.4 3.7 7.4-1.2 1.7-6.1-7.1-7-9.4-7-18.3 0-7.1.4-8.8 3.6-15.5 2-4.1 7.3-12.5 11.9-18.5 9.9-13.2 14-21.2 14-27.5 0-4.8-1.4-7.9-7.1-16.2-3.8-5.5-5.7-10.8-3.9-10.8.5 0 1 .6 1 1.3zm-46.9 28.5c-1.1 2.2-6.1 7.6-11 12.1-9.5 8.7-11.1 11.5-11.1 18.9 0 3.8-.2 4.3-1.5 3.2-2.4-2-2.8-7.2-1-11.6 1.5-3.8 25.6-28.7 26.3-27.2.2.3-.6 2.4-1.7 4.6zm-27 10.9c-1 2.1-3.5 5.4-5.5 7.2l-3.6 3.5v-2.6c0-1.8 1.7-4.5 5.2-8.3 5.6-6.1 7.2-6 3.9.2zM311.4 315c4.3 0 16.8 3.6 22.4 6.4 5.1 2.6 8.8 5.7 11.3 9.6l1.7 2.5.7-3.8c.5-2.3.3-4.9-.5-6.7-1.7-4.1-1.1-4.4 3-1.2 1.8 1.4 3.9 2.7 4.6 2.8 2.9.4 7.8 5.2 9.7 9.4 1.2 2.7 2.2 7.7 2.5 12.3l.5 7.8 2.2-2.1 2.3-2.1.6 2.4c.3 1.4 4.2 6.4 8.6 11.2 10.1 11.1 12.5 15.9 12.4 24.5-.1 5.3-.8 8.3-4.2 16.2-6.7 15.4-5.1 23.8 5.1 28.3l2.9 1.2-4.7 4.1c-5.8 5.1-13 7.6-21.5 7.5-7.2 0-14.2-2.5-17.4-6.2-2.2-2.4-1.2-2.7 2.4-.6 3.3 1.9 11.4 1.9 12.9.1 1-1.2.7-1.8-1.8-3.1-8.8-4.5-7.8-14.7 2.9-30.5 7.9-11.7 9.1-16.4 5.8-23-1.8-3.4-4.3-5.8-10.8-10.2-9.3-6.3-12.4-9.5-14.1-14.6-1.8-5.4-6.1-12.4-7-11.5-.5.5-1.2 3-1.5 5.6-1.3 9 6.5 20.1 19.4 28.1 6.6 4 8.6 7 7.6 11.2-.4 1.4-3.5 6.8-7 12s-6.9 11.4-7.5 13.7c-.7 2.3-1.6 4.6-2.1 5.2-1.6 1.8-.8-3.4 2.3-15.2 3.7-14.3 4-20.3 1-26.1-2.8-5.6-8.2-9.3-18.9-13.2-17.5-6.3-18.7-8.1-17.9-25.4l.5-11.9-4.1 6.3c-3.8 5.8-4.1 6.7-4.2 13.4 0 11.3 4.7 17.9 15.8 22 2.3.9 6.9 2.5 10.2 3.7 7.6 2.8 12 7.1 13 12.6.7 4.4-2.1 18.1-7.3 35.1-2 6.8-2.4 9.7-2 16.5.5 8.7 1.8 12.3 7.1 19.1l3.1 3.9-3.9-.7c-15.4-2.7-31-11.5-36.2-20.3-2.2-3.7-2.4-5-1.8-9.5 1.1-7.9 2.4-10.3 2.4-4.7.1 5.9 5.1 16 9.6 19.5 3.7 2.8 9 4 13.1 3 2.6-.7 2.6-.7-2-3.6-9-5.8-10.2-10.8-6.4-28.3 4.3-20.5 2.5-28.6-8.4-38.6-15.6-14.1-21.3-22-22.6-31.3-.3-2.8-.8-3.6-1.6-2.8-1.6 1.6-1.1 18.6.7 24.5l1.6 5-2.5-3c-1.3-1.7-3.9-5.9-5.7-9.5-2.9-5.9-3.2-7.3-3.2-15.6 0-10.3-.8-10.8-4.5-2.3-4.3 10.1-3.5 24.1 1.9 34.8 3.1 6.1 11 13.9 18.1 18 3.6 2 7.1 4.9 7.9 6.3 1.4 2.4 1.3 3.2-.2 8.2-1 3.1-2.1 5.6-2.6 5.6-.4 0-1.2-1.5-1.9-3.4-2-5.4-6.9-11.5-11.9-14.6-2.6-1.7-4.8-2.8-5.1-2.6-.2.3 1 2.2 2.7 4.3 5 6.3 8.5 15 8.9 22.5.2 3.8.1 6.8-.2 6.8-.3 0-2-1.5-3.6-3.3l-2.9-3.2-.1 2.8c0 3.8-2.1 11.7-3 11.7-1.4 0-2.7-2.5-4-7.8-.7-3.2-2-5.8-3.3-6.7-2.1-1.5-2.1-1.5.9-1.5 3.3 0 8.4-2.9 5.2-3-2.1 0-6.8-2.1-6.8-3 0-.4 1.2-1.3 2.8-2l2.7-1.3-3-1c-4.2-1.3-8.2-5.4-9.6-9.4-.7-2.3-.9-7.3-.4-15.2.9-14.8-.1-19-6.1-25-2.4-2.4-4.4-4.7-4.4-5.2 0-.4-2.1-2.5-4.6-4.7-5.5-4.7-5.5-6.2.3-13.8l3.8-4.9.6 4.2c.7 5.7 1.5 6.2 2.9 1.9 1.5-4.7 6.3-9.4 20.3-19.9 6.5-4.9 12.5-10 13.4-11.4l1.7-2.6 3.9 4.7c3.1 3.7 4.5 4.6 7.1 4.6zm-261.9-1.2c8.7 2.5 28.4 1.9 42.3-1.5 1.7-.4 2.2-.1 2.2 1.5 0 2.8-1.9 3.3-15.7 3.9-16.1.8-32.7-1.9-36.8-6-.7-.7-.3-.7 1-.2 1.1.4 4.3 1.4 7 2.3zm95.5 7.1c0 4.1 3.9 9.3 9.3 12.1 4.7 2.5 6.2 4.3 5.1 6.2-.4.5-1.3.4-2.2-.5-1-.8-4.5-2.9-7.8-4.6-7.3-3.9-8.9-6.5-7.4-12.2 1.3-4.5 3-5.2 3-1zm-38.5 15.6c.7 9.6.2 14.5-1.5 14.5-.6 0-1-1.2-1-2.6 0-1.5-.5-5.5-1.2-8.9-.9-5-.8-7 .2-9.4.7-1.7 1.6-3.1 2-3.1.5 0 1.1 4.3 1.5 9.5zm94.6 21c5.3 5.5 9.6 13.1 8.3 14.4-.5.6-14.2-14.2-17-18.3-2.6-3.8-3.7-8.1-2.8-10.9.6-1.8 1-1.4 3 3.1 1.3 3 5 8.1 8.5 11.7zm-64.1-7c0 .8 2.3 5.8 5 11 2.8 5.2 5 10.8 5 12.3l-.1 2.7-1.6-3c-.8-1.7-3-4.6-4.9-6.5-1.8-1.9-3.8-4.8-4.3-6.3-1.4-3.6-1.4-11.7-.1-11.7.6 0 1 .7 1 1.5zm43.5 29.6c.4 1.1 3.8 5.2 7.7 9.1 3.8 3.8 6.7 7.2 6.4 7.5-.9.9-11.4-5.7-14-8.8-1.7-2-2.6-4.3-2.6-6.5 0-3.8 1.5-4.6 2.5-1.3zm26.3 83.6c-1 .2-2.6.2-3.5 0-1-.3-.2-.5 1.7-.5s2.7.2 1.8.5z"/><path d="M509.7 273.4c-3.4 8.2-13.8 22.7-23.1 32.1-10.5 10.7-23.2 20.3-43.1 32.6-28.4 17.7-28.1 17.4-27.9 31.9.3 21.9 6 41.6 16.6 57.6 8.2 12.2 14.5 13.6 28.8 6.4 11.7-5.9 27.4-15 40.3-23.3l10.7-7v-67.4c0-37-.1-67.3-.2-67.3-.2 0-1.1 2-2.1 4.4zM.1 344.5l-.1 49 10.9-11.1c11.8-11.9 11.1-10.8 15.4-27.9.8-3.3 2.7-8.8 4.1-12.3 3.6-8.5 2.7-11.3-5.8-18.1-8.7-6.9-19.1-18.2-22-23.8l-2.5-4.8v49zM510 452c-.9.6-1 1-.3 1 .6 0 1.5-.5 1.8-1 .8-1.2.4-1.2-1.5 0zM505 454c-.8.5-1 1-.5 1 .6 0 1.7-.5 2.5-1s1.1-1 .5-1c-.5 0-1.7.5-2.5 1zM468 473.5c-1.4.8-2 1.4-1.5 1.4.6 0 2.1-.6 3.5-1.4 1.4-.8 2.1-1.4 1.5-1.4-.5 0-2.1.6-3.5 1.4zM504.3 484.8c-3.9 2.6-10.5 6.7-14.5 9.1-4 2.4-11.8 7.4-17.2 11l-10 6.6 17.3.3 17.4.2 7.3-4.5 7.4-4.6v-11.5c0-6.3-.1-11.4-.2-11.4-.2.1-3.5 2.2-7.5 4.8zM442 485c-1.9 1.1-3 1.9-2.5 1.9.6 0 2.6-.8 4.5-1.9 1.9-1.1 3.1-1.9 2.5-1.9-.5 0-2.6.8-4.5 1.9z"/></svg>